<?xml version="1.0" standalone="no"?>
<!DOCTYPE svg PUBLIC "-//W3C//DTD SVG 20010904//EN"
 "http://www.w3.org/TR/2001/REC-SVG-20010904/DTD/svg10.dtd">
<svg version="1.0" xmlns="http://www.w3.org/2000/svg"
 width="560.000000pt" height="560.000000pt" viewBox="0 0 560.000000 560.000000"
 preserveAspectRatio="xMidYMid meet">
<metadata>
Created by potrace 1.11, written by Peter Selinger 2001-2013
</metadata>
<g transform="translate(0.000000,560.000000) scale(0.100000,-0.100000)"
fill="#000000" stroke="none">
<path d="M4263 5367 c-18 -5 -33 -14 -33 -19 0 -5 -4 -7 -10 -3 -5 3 -38 -23
-73 -57 -49 -48 -68 -76 -82 -117 -60 -183 104 -356 271 -286 122 51 213 189
192 293 -6 26 -10 53 -11 60 0 6 -4 12 -9 12 -4 0 -8 6 -8 13 -1 17 -39 59
-78 86 -37 26 -108 34 -159 18z"/>
<path d="M4510 4773 c-84 -57 -145 -164 -138 -239 2 -22 36 -106 77 -189 110
-227 132 -274 131 -281 -1 -4 2 -10 7 -13 4 -3 26 -42 48 -86 22 -44 45 -83
50 -87 11 -8 12 -106 2 -156 -11 -52 -44 -131 -68 -167 -22 -32 -62 -44 -75
-24 -3 5 -10 7 -15 4 -5 -4 -9 -1 -9 4 0 6 -6 11 -12 11 -7 1 -31 21 -53 47
-22 25 -51 57 -65 72 -13 14 -23 28 -22 31 1 3 -4 12 -12 21 -7 9 -34 47 -58
85 -25 38 -67 103 -93 144 -27 41 -55 85 -62 98 -23 43 -134 180 -151 187 -61
24 -122 10 -173 -40 -56 -54 -64 -140 -33 -370 4 -27 8 -61 10 -75 1 -14 6
-47 10 -75 3 -27 6 -58 6 -67 -1 -10 3 -20 8 -23 5 -3 7 -11 4 -18 -2 -7 0
-34 5 -60 15 -81 -12 -56 -77 71 -80 157 -98 189 -141 243 -58 74 -107 85
-186 43 -58 -32 -86 -91 -88 -185 0 -68 8 -181 19 -236 2 -13 6 -33 8 -45 3
-13 10 -57 16 -98 7 -41 14 -84 17 -95 13 -61 13 -95 1 -95 -8 0 -19 12 -25
28 -15 34 -35 65 -48 74 -5 4 -6 8 -2 8 4 0 3 6 -3 13 -17 20 -110 167 -106
167 5 0 -32 45 -84 102 -56 62 -87 57 -180 -31 -49 -46 -51 -52 -49 -93 3 -47
25 -102 99 -249 59 -119 72 -142 85 -151 6 -4 6 -8 1 -8 -5 0 -2 -7 5 -16 7
-9 18 -25 24 -35 5 -10 35 -61 66 -112 61 -100 63 -111 39 -207 -16 -66 -60
-193 -72 -207 -6 -7 -8 -13 -5 -13 7 0 -41 -90 -81 -154 -29 -47 -121 -138
-133 -131 -4 3 -10 1 -13 -4 -7 -10 -94 -8 -138 4 l-28 7 19 27 c24 33 81 151
103 211 30 83 42 154 42 255 0 124 -5 150 -41 228 -98 209 -330 273 -521 144
-51 -34 -112 -93 -112 -108 0 -5 -4 -9 -9 -9 -10 0 -60 -112 -68 -150 -25
-129 -24 -199 6 -332 9 -39 15 -57 46 -133 5 -11 9 -22 10 -25 9 -37 141 -240
155 -240 28 0 12 -99 -37 -233 -39 -107 -74 -154 -121 -163 -46 -9 -109 34
-186 126 -19 23 -86 140 -86 151 0 5 -4 9 -8 9 -5 0 -9 6 -9 13 -1 6 -11 44
-23 82 -12 39 -23 75 -24 80 -2 6 -6 17 -9 25 -3 8 -9 29 -13 45 -4 17 -8 35
-10 40 -2 6 -5 20 -8 33 -3 12 -7 26 -10 30 -3 5 -7 21 -10 37 -9 47 -113 391
-125 410 -3 6 -6 12 -6 15 -2 15 -41 123 -63 170 -42 95 -135 285 -142 290 -3
3 -24 34 -45 70 -22 36 -45 71 -52 78 -7 7 -13 17 -13 21 0 8 -154 167 -183
189 -10 7 -43 25 -75 40 -226 104 -392 -116 -348 -463 24 -192 99 -414 214
-635 30 -58 62 -118 70 -135 9 -16 22 -36 29 -43 7 -7 13 -20 13 -28 0 -8 4
-14 8 -14 5 0 15 -12 23 -27 8 -16 19 -33 24 -40 6 -7 16 -19 23 -27 6 -8 12
-20 12 -26 0 -5 5 -10 10 -10 6 0 10 -6 10 -14 0 -8 3 -16 8 -18 18 -8 58 -74
50 -83 -43 -49 -68 -80 -68 -86 0 -4 -6 -14 -14 -21 -12 -13 -49 -77 -51 -88
0 -3 -3 -9 -6 -15 -6 -9 -30 -77 -35 -100 -24 -95 -29 -136 -28 -235 2 -170
35 -295 111 -425 28 -48 32 -76 19 -135 -3 -14 -13 -57 -21 -96 -21 -93 -64
-206 -93 -238 -12 -15 -22 -31 -22 -36 0 -6 -4 -10 -8 -10 -5 0 -19 -10 -32
-22 -14 -13 -27 -22 -30 -22 -3 1 -16 -3 -29 -8 -87 -33 -198 17 -296 134 -27
33 -56 66 -63 74 -7 8 -10 14 -7 14 4 0 -4 15 -17 33 -23 31 -80 141 -78 152
0 3 -6 18 -13 33 -37 73 9 237 70 249 14 3 65 -46 118 -115 68 -87 125 -96
187 -28 69 74 47 213 -50 318 -69 74 -196 113 -292 89 -56 -15 -121 -42 -138
-58 -7 -7 -17 -13 -21 -13 -4 0 -29 -21 -55 -48 -49 -48 -114 -168 -118 -216
-1 -14 -5 -26 -9 -26 -10 0 -2 -230 10 -275 5 -22 13 -53 16 -70 4 -16 10 -39
15 -50 56 -126 73 -161 113 -220 55 -82 84 -115 152 -171 49 -40 165 -109 165
-97 0 3 6 1 13 -4 37 -30 192 -43 272 -24 22 6 41 8 44 5 2 -2 13 4 24 13 10
10 20 17 21 15 10 -24 216 136 216 168 0 5 5 10 10 10 6 0 10 7 10 15 0 8 5
15 12 15 6 0 8 3 5 6 -4 4 2 19 12 33 15 21 70 159 71 176 0 3 0 6 1 8 4 12
10 42 19 97 17 96 14 93 59 69 91 -47 208 -57 285 -25 20 8 40 16 44 18 8 3
34 23 73 59 35 33 119 166 119 190 0 10 4 20 9 24 10 5 52 178 56 228 3 35 11
43 27 29 15 -12 113 -39 143 -40 11 0 25 -2 30 -3 39 -11 165 30 211 69 25 21
89 119 99 153 4 13 11 26 14 29 7 6 60 154 67 186 3 17 23 78 36 112 2 4 6 6
9 5 62 -21 208 -25 264 -9 25 8 45 12 45 10 0 -3 11 3 25 12 14 9 25 14 25 10
0 -6 56 30 104 67 46 34 163 157 151 157 -3 0 2 9 12 20 31 32 99 170 132 265
17 50 33 96 36 102 3 8 18 0 42 -22 21 -19 45 -35 53 -35 9 0 21 -5 27 -11 22
-22 93 -13 136 18 81 56 89 104 47 273 -12 47 -23 92 -25 100 -1 8 -17 70 -35
138 -18 68 -33 129 -34 135 -2 7 -6 19 -9 27 -3 8 -8 26 -10 40 -3 14 -13 54
-22 90 -9 36 -18 77 -20 92 -2 15 -6 32 -9 37 -7 10 3 41 13 41 3 0 15 -18 25
-40 11 -22 23 -40 28 -40 4 0 8 -5 8 -10 0 -6 12 -29 27 -53 14 -23 25 -42 22
-42 -2 0 6 -11 18 -24 12 -13 20 -28 17 -33 -3 -4 -1 -8 4 -8 4 0 19 -19 32
-42 26 -48 98 -157 114 -174 6 -6 27 -28 46 -50 34 -37 84 -76 105 -81 80 -19
100 -15 143 26 71 68 82 131 42 249 -16 45 -26 82 -23 82 3 0 1 6 -4 13 -8 10
-39 97 -48 132 -1 6 -5 18 -8 28 -4 9 -10 25 -14 35 -3 9 -7 22 -9 27 -1 6 -9
29 -18 53 -8 23 -15 43 -15 45 0 1 -3 11 -6 22 -4 11 -11 31 -15 45 -4 14 -12
34 -16 45 -4 11 -8 22 -9 25 0 3 -10 31 -20 62 -10 32 -16 61 -12 64 7 7 46
-35 47 -49 0 -8 3 -13 50 -68 16 -20 30 -41 30 -47 0 -6 3 -12 8 -14 4 -1 29
-32 57 -68 27 -36 65 -80 82 -98 18 -18 33 -37 33 -42 0 -6 3 -10 8 -10 4 0
30 -22 59 -49 28 -27 54 -47 57 -44 3 4 6 2 6 -4 0 -13 77 -50 122 -58 43 -8
102 16 125 51 8 13 19 21 24 18 5 -3 9 -1 9 5 0 6 13 26 30 44 36 41 114 193
105 206 -3 5 -1 12 5 16 6 4 8 10 5 15 -3 5 -1 11 5 15 5 3 10 19 10 36 0 19
5 29 15 29 8 0 15 -4 15 -9 0 -13 92 -33 132 -29 87 9 212 109 272 219 61 112
84 159 79 159 -3 0 -1 6 5 13 11 14 68 188 75 232 3 17 8 42 12 57 7 28 -4 44
-102 158 -83 96 -83 96 -84 75 0 -11 -3 -31 -5 -45 -3 -14 -6 -41 -9 -60 -2
-19 -4 -35 -5 -35 -1 0 -3 -9 -5 -20 -1 -11 -5 -35 -9 -52 -3 -18 -8 -46 -11
-62 -7 -41 -45 -162 -60 -191 -26 -50 -54 -73 -87 -72 -18 0 -34 6 -36 11 -2
6 -8 11 -13 11 -6 0 -21 12 -34 28 -26 28 -115 158 -115 166 0 3 -14 29 -31
58 -17 29 -30 53 -29 53 1 0 -18 41 -41 90 -24 50 -44 92 -45 95 -3 15 -106
239 -126 275 -6 11 -17 30 -24 43 -27 51 -79 66 -124 35z m-3383 -1575 c21
-18 59 -61 83 -95 25 -34 48 -62 53 -63 4 0 7 -4 7 -9 0 -6 14 -30 30 -54 17
-25 30 -48 30 -53 0 -4 6 -15 13 -23 7 -9 22 -36 32 -61 10 -25 26 -53 34 -64
9 -10 15 -19 13 -20 -2 0 2 -14 9 -31 7 -16 13 -32 14 -35 1 -3 7 -18 13 -33
7 -16 21 -52 33 -80 12 -29 25 -61 29 -72 13 -31 72 -196 75 -209 1 -6 5 -19
8 -28 4 -10 9 -24 11 -30 2 -7 4 -15 5 -18 35 -110 49 -165 44 -169 -3 -3 -8
0 -10 6 -3 7 -20 29 -39 50 -18 21 -34 44 -34 51 0 6 -7 12 -15 12 -14 0 -20
12 -16 33 1 5 -2 6 -7 3 -5 -3 -17 9 -27 27 -11 18 -29 43 -41 56 -13 14 -21
28 -18 33 3 4 1 8 -4 8 -9 0 -212 300 -212 313 0 3 -19 36 -42 73 -36 61 -140
267 -144 287 -1 4 -2 8 -4 10 -2 2 -3 8 -18 68 -8 30 -9 76 -3 111 2 13 32 38
46 38 7 0 30 -15 52 -32z m1461 -442 c26 -5 97 -84 101 -113 6 -48 5 -116 -2
-162 -8 -52 -55 -155 -86 -190 l-22 -25 -24 27 c-14 14 -25 30 -25 35 0 4 -8
17 -17 28 -22 23 -62 103 -71 141 -13 52 -8 169 8 186 8 9 28 31 43 51 23 28
33 34 55 29 15 -3 33 -6 40 -7z m-1129 -985 c21 -21 57 -63 82 -92 24 -29 59
-68 77 -86 17 -19 32 -36 32 -38 0 -2 20 -23 44 -47 41 -41 51 -58 61 -107 3
-12 8 -31 11 -43 11 -46 12 -184 1 -217 -26 -74 -131 -120 -196 -87 -54 29
-125 134 -162 241 -8 22 -14 45 -15 50 0 6 -4 17 -8 26 -4 9 -8 32 -9 53 -1
20 -4 36 -7 36 -7 0 -4 179 4 220 6 30 16 68 31 118 6 19 14 15 54 -27z"/>
</g>
</svg>
